<svg width="173" height="47" viewBox="0 0 173 47" fill="none" xmlns="http://www.w3.org/2000/svg">
<path d="M5.8375 14.7812C5.8375 12.4479 6.07708 10.5417 6.55625 9.0625C7.03542 7.5625 7.8375 6.17708 8.9625 4.90625C10.1083 3.61458 11.4208 2.51042 12.9 1.59375C14.3792 0.65625 15.3375 0.1875 15.775 0.1875C16.0667 0.1875 16.2125 0.59375 16.2125 1.40625C16.2125 1.51042 16.0146 1.71875 15.6188 2.03125C13.7646 3.42708 12.4938 5.13542 11.8063 7.15625C11.1188 9.17708 10.775 11.4062 10.775 13.8438V24C10.775 24.25 10.9417 24.375 11.275 24.375C11.4208 24.375 11.775 24.3438 12.3375 24.2812C12.9 24.2188 13.4417 24.1875 13.9625 24.1875C15.1708 24.1875 15.775 24.5938 15.775 25.4062C15.775 25.8021 15.5771 26.1146 15.1813 26.3438C14.7854 26.5729 14.3167 26.6875 13.775 26.6875C11.775 26.6875 10.775 27.5 10.775 29.125V40C10.775 41.0417 10.8688 41.6875 11.0563 41.9375C11.2438 42.1667 11.4833 42.4271 11.775 42.7188C12.0875 42.9896 12.7333 43.1875 13.7125 43.3125C14.7125 43.4375 15.3271 43.6042 15.5563 43.8125C15.7854 44.0208 15.9 44.2917 15.9 44.625C15.9 45.4375 15.2958 45.8438 14.0875 45.8438C13.3792 45.8438 12.4833 45.7292 11.4 45.5C10.3375 45.2917 9.275 45.1875 8.2125 45.1875C7.54583 45.1875 6.59792 45.2917 5.36875 45.5C4.16042 45.7292 3.4 45.8438 3.0875 45.8438C1.775 45.8438 1.11875 45.3958 1.11875 44.5C1.11875 44.2083 1.2125 43.9688 1.4 43.7812C1.5875 43.5938 2.12917 43.4479 3.025 43.3438C3.92083 43.2188 4.57708 43.0208 4.99375 42.75C5.41042 42.4583 5.65 42.1042 5.7125 41.6875C5.79583 41.25 5.8375 40.3438 5.8375 38.9688V28.9375C5.8375 27.4375 4.91042 26.6875 3.05625 26.6875C1.61875 26.6875 0.900002 26.2396 0.900002 25.3438C0.900002 24.5312 1.62917 24.125 3.0875 24.125C3.60833 24.125 4.10833 24.1562 4.5875 24.2188C5.06667 24.2812 5.35833 24.3125 5.4625 24.3125C5.7125 24.3125 5.8375 24.1875 5.8375 23.9375V14.7812ZM31.865 29.9688L31.99 30.8438C32.0942 30.8438 32.5838 29.8542 33.4588 27.875C34.3338 25.8958 35.1983 24.4896 36.0525 23.6562C36.9067 22.8229 37.7921 22.4062 38.7088 22.4062C39.4171 22.4062 39.9483 22.5312 40.3025 22.7812C40.6775 23.0312 40.865 23.3125 40.865 23.625C40.865 24.1667 40.74 24.6042 40.49 24.9375C40.24 25.25 39.8025 25.6458 39.1775 26.125C36.5317 28.1458 34.615 30.6042 33.4275 33.5C32.2608 36.3958 31.6775 38.8021 31.6775 40.7188C31.6775 41.6146 31.7921 42.2292 32.0213 42.5625C32.2713 42.875 32.8546 43.1458 33.7713 43.375C34.6879 43.5833 35.2817 43.8125 35.5525 44.0625C35.8233 44.3125 35.9588 44.6042 35.9588 44.9375C35.9588 45.5417 35.5942 45.8438 34.865 45.8438C34.2817 45.8438 33.4692 45.7396 32.4275 45.5312C31.4067 45.3438 30.3025 45.25 29.115 45.25C28.3233 45.25 27.5213 45.3438 26.7088 45.5312C25.8963 45.7396 25.3754 45.8438 25.1463 45.8438C24.5629 45.8438 24.0942 45.7292 23.74 45.5C23.3858 45.2917 23.2088 45.0208 23.2088 44.6875C23.2088 44.4375 23.3025 44.2188 23.49 44.0312C23.6983 43.8229 24.2608 43.5625 25.1775 43.25C26.0942 42.9375 26.6567 42.625 26.865 42.3125C27.0733 42 27.1775 41.0208 27.1775 39.375V29.8438C27.1775 29.2396 27.0317 28.6979 26.74 28.2188C26.4692 27.7396 25.9067 27.375 25.0525 27.125C24.2192 26.8542 23.7192 26.625 23.5525 26.4375C23.4067 26.25 23.3338 26.0417 23.3338 25.8125C23.3338 25.125 23.8233 24.7812 24.8025 24.7812C25.0733 24.7812 25.5213 24.8333 26.1463 24.9375C26.7921 25.0417 27.24 25.0938 27.49 25.0938C27.6983 25.0938 28.0317 25.0521 28.49 24.9688C28.9692 24.8854 29.5317 24.8438 30.1775 24.8438C31.3025 24.8438 31.865 26.0417 31.865 28.4375V29.9688ZM65.9238 32.9062C66.4029 32.9062 66.7258 32.8229 66.8925 32.6562C67.0592 32.4896 67.1425 32.1875 67.1425 31.75C67.1425 30.1458 66.5175 28.6458 65.2675 27.25C64.0383 25.8542 62.1738 25.1562 59.6738 25.1562C57.9446 25.1562 56.1529 25.9792 54.2988 27.625C52.4654 29.2708 51.5488 31.6042 51.5488 34.625C51.5488 36.8333 52.5175 38.8229 54.455 40.5938C56.4133 42.3438 58.6008 43.2188 61.0175 43.2188C62.8508 43.2188 64.83 42.6458 66.955 41.5C67.7675 41.0625 68.2988 40.8438 68.5488 40.8438C68.9238 40.8438 69.2154 40.9479 69.4238 41.1562C69.6529 41.3646 69.7675 41.625 69.7675 41.9375C69.7675 42.6875 68.6113 43.6146 66.2988 44.7188C64.0071 45.8021 61.6425 46.3438 59.205 46.3438C55.6008 46.3438 52.5696 45.1146 50.1113 42.6562C47.6529 40.1979 46.4238 37.2708 46.4238 33.875C46.4238 30.7708 47.7675 28.1146 50.455 25.9062C53.1633 23.6979 56.1946 22.5938 59.5488 22.5938C63.9029 22.5938 67.1633 23.7083 69.33 25.9375C71.4967 28.1667 72.58 30.8333 72.58 33.9375C72.58 34.6042 72.4133 35.0208 72.08 35.1875C71.7467 35.3333 71.1321 35.4062 70.2363 35.4062H55.8925C54.7258 35.4062 54.1425 34.9792 54.1425 34.125C54.1425 33.3125 54.7467 32.9062 55.955 32.9062H65.9238ZM97.2637 28.6875C97.2637 28.2292 97.0554 27.8438 96.6387 27.5312C96.2429 27.1979 95.8054 27.0312 95.3262 27.0312C94.2846 27.0312 93.0554 27.625 91.6387 28.8125C90.8054 29.5417 90.2012 29.9062 89.8262 29.9062C89.2846 29.9062 89.0137 29.6667 89.0137 29.1875C89.0137 28.125 89.9825 26.8958 91.92 25.5C93.8783 24.0833 95.6387 23.375 97.2012 23.375C98.5346 23.375 99.7012 23.8542 100.701 24.8125C101.701 25.75 102.201 26.8646 102.201 28.1562L102.139 40.7812C102.139 41.4271 102.357 41.9688 102.795 42.4062C103.232 42.8229 103.753 43.0312 104.357 43.0312C105.42 43.0312 105.951 43.4479 105.951 44.2812C105.951 45.0104 105.399 45.375 104.295 45.375C104.17 45.375 103.545 45.3125 102.42 45.1875C101.316 45.0625 100.389 45 99.6387 45C98.3887 45 97.3367 45.0729 96.4825 45.2188C95.6283 45.3646 95.0762 45.4375 94.8262 45.4375C94.4512 45.4375 94.1179 45.3125 93.8262 45.0625C93.5554 44.8333 93.42 44.5312 93.42 44.1562C93.42 43.5729 93.7846 43.2812 94.5137 43.2812C95.1804 43.2812 95.8054 43.0729 96.3887 42.6562C96.9721 42.2188 97.2637 41.5729 97.2637 40.7188V28.6875ZM111.545 28.6875C111.545 28.2292 111.337 27.8438 110.92 27.5312C110.524 27.1979 110.087 27.0312 109.607 27.0312C108.774 27.0312 107.743 27.5104 106.514 28.4688C105.305 29.4271 104.503 29.9062 104.107 29.9062C103.857 29.9062 103.628 29.8333 103.42 29.6875C103.232 29.5208 103.139 29.3333 103.139 29.125C103.139 28.1875 104.055 27.0104 105.889 25.5938C107.722 24.1562 109.587 23.4375 111.482 23.4375C113.691 23.4375 115.201 24.3646 116.014 26.2188C116.305 26.7812 116.451 29.8646 116.451 35.4688L116.389 40.7812C116.389 41.4479 116.566 41.9479 116.92 42.2812C117.274 42.6146 117.816 42.8542 118.545 43C119.274 43.1458 119.712 43.3229 119.857 43.5312C120.024 43.7188 120.107 43.9479 120.107 44.2188C120.107 44.9896 119.597 45.375 118.576 45.375C118.43 45.375 117.805 45.3125 116.701 45.1875C115.597 45.0625 114.66 45 113.889 45C113.118 45 112.274 45.0729 111.357 45.2188C110.462 45.3646 109.712 45.4375 109.107 45.4375C108.732 45.4375 108.399 45.3125 108.107 45.0625C107.837 44.8333 107.701 44.5312 107.701 44.1562C107.701 43.5104 108.18 43.1458 109.139 43.0625C110.118 42.9583 110.764 42.6979 111.076 42.2812C111.389 41.8646 111.545 41.3438 111.545 40.7188V28.6875ZM83.045 28.75C83.045 28 82.8158 27.4167 82.3575 27C81.92 26.5833 81.4929 26.375 81.0762 26.375C79.8262 26.375 79.2012 25.9896 79.2012 25.2188C79.2012 24.3229 79.6492 23.875 80.545 23.875C80.795 23.875 81.2742 23.9479 81.9825 24.0938C82.7117 24.2396 83.2637 24.3125 83.6387 24.3125C84.1387 24.3125 84.6492 24.25 85.17 24.125C85.7117 24 86.0762 23.9375 86.2637 23.9375C86.8262 23.9375 87.2012 24.0833 87.3887 24.375C87.5762 24.6458 87.7117 25.7812 87.795 27.7812C87.8783 29.7812 87.92 32.1042 87.92 34.75L87.8575 40.1875C87.8575 41.1458 87.9096 41.75 88.0137 42C88.1387 42.2292 88.3887 42.4583 88.7637 42.6875C89.1596 42.9167 89.6179 43.0625 90.1387 43.125C90.6596 43.1875 91.0346 43.2917 91.2637 43.4375C91.5137 43.5625 91.6387 43.8438 91.6387 44.2812C91.6387 45.0104 91.1075 45.375 90.045 45.375C89.2742 45.375 88.4929 45.3021 87.7012 45.1562C86.9096 45.0104 86.1283 44.9375 85.3575 44.9375C84.7325 44.9375 83.9617 45.0104 83.045 45.1562C82.1492 45.3021 81.4721 45.375 81.0137 45.375C79.8471 45.375 79.2637 45.0417 79.2637 44.375C79.2637 43.875 79.3679 43.5521 79.5762 43.4062C79.8054 43.2396 80.2117 43.125 80.795 43.0625C81.3783 42.9792 81.8471 42.8125 82.2012 42.5625C82.5762 42.2917 82.8054 41.9479 82.8887 41.5312C82.9929 41.1146 83.045 40.2604 83.045 38.9688V28.75ZM133.635 13.0625C134.593 13.0625 135.416 13.4167 136.104 14.125C136.812 14.8125 137.166 15.6354 137.166 16.5938C137.166 17.4479 136.823 18.1771 136.135 18.7812C135.448 19.3646 134.635 19.6562 133.698 19.6562C132.76 19.6562 131.948 19.3333 131.26 18.6875C130.593 18.0208 130.26 17.2292 130.26 16.3125C130.26 15.4375 130.593 14.6771 131.26 14.0312C131.948 13.3854 132.739 13.0625 133.635 13.0625ZM136.135 40.25C136.135 41.2708 136.323 41.9375 136.698 42.25C137.073 42.5625 137.573 42.7708 138.198 42.875C138.823 42.9583 139.26 43.0833 139.51 43.25C139.781 43.4167 139.916 43.7604 139.916 44.2812C139.916 44.9688 139.312 45.3125 138.104 45.3125C137.583 45.3125 136.802 45.25 135.76 45.125C134.718 45 133.948 44.9375 133.448 44.9375C132.948 44.9375 132.218 45.0208 131.26 45.1875C130.302 45.3542 129.583 45.4375 129.104 45.4375C128.625 45.4375 128.208 45.3021 127.854 45.0312C127.52 44.7604 127.354 44.4062 127.354 43.9688C127.354 43.6979 127.448 43.4688 127.635 43.2812C127.823 43.0729 128.302 42.9062 129.073 42.7812C129.843 42.6562 130.375 42.4062 130.666 42.0312C130.979 41.6562 131.135 40.75 131.135 39.3125V28.75C131.135 27.8542 130.948 27.2604 130.573 26.9688C130.198 26.6771 129.645 26.4583 128.916 26.3125C128.187 26.1667 127.729 25.9792 127.541 25.75C127.375 25.5208 127.291 25.2396 127.291 24.9062C127.291 24.5312 127.437 24.2292 127.729 24C128.041 23.75 128.406 23.625 128.823 23.625C129.177 23.625 129.677 23.6979 130.323 23.8438C130.989 23.9896 131.479 24.0625 131.791 24.0625C132.145 24.0625 132.687 24.0104 133.416 23.9062C134.145 23.8021 134.687 23.75 135.041 23.75C135.812 23.75 136.198 24.3958 136.198 25.6875C136.198 25.8958 136.187 26.1771 136.166 26.5312C136.145 26.8646 136.135 27.0938 136.135 27.2188V40.25ZM159.881 22.5312C163.34 22.5312 166.35 23.7188 168.913 26.0938C171.496 28.4688 172.788 31.2083 172.788 34.3125C172.788 37.7917 171.558 40.625 169.1 42.8125C166.642 45 163.35 46.0938 159.225 46.0938C155.975 46.0938 153.048 44.9792 150.444 42.75C147.86 40.5208 146.569 37.75 146.569 34.4375C146.569 31.2708 147.704 28.5 149.975 26.125C152.267 23.7292 155.569 22.5312 159.881 22.5312ZM159.944 43.3438C162.34 43.3438 164.246 42.4792 165.663 40.75C167.1 39.0208 167.819 36.8333 167.819 34.1875C167.819 31.5833 167.048 29.4479 165.506 27.7812C163.985 26.1146 162.048 25.2812 159.694 25.2812C157.277 25.2812 155.402 26.1042 154.069 27.75C152.735 29.375 152.069 31.4792 152.069 34.0625C152.069 36.9167 152.808 39.1771 154.288 40.8438C155.767 42.5104 157.652 43.3438 159.944 43.3438Z" fill="black"/>
</svg>
