<?xml version="1.0" encoding="UTF-8"?>
<svg version="1.1" xmlns="http://www.w3.org/2000/svg" width="1453" height="439">
<path d="M0 0 C89.43 0 178.86 0 271 0 C271 89.43 271 178.86 271 271 C181.57 271 92.14 271 0 271 C0 181.57 0 92.14 0 0 Z " fill="#161616" transform="translate(0,95)"/>
<path d="M0 0 C5.00683877 4.04570455 10.66689533 9.33379067 13.5625 15.125 C14.16835938 14.41214844 14.77421875 13.69929688 15.3984375 12.96484375 C28.08147347 -1.53284198 45.56722661 -12.40734317 65.14648438 -14.09814453 C87.46979367 -15.35098332 109.62175308 -11.97341232 127.5625 2.125 C128.72072266 3.00091797 128.72072266 3.00091797 129.90234375 3.89453125 C143.98199039 15.32672297 149.34873727 32.76315461 151.5625 50.125 C151.81383648 54.46865135 151.81688249 58.79557486 151.78955078 63.14550781 C151.78984283 64.38596359 151.79013489 65.62641937 151.79043579 66.90446472 C151.78929134 70.26531672 151.77934702 73.62591484 151.76528788 76.98672199 C151.75267995 80.51406907 151.75160217 84.04142049 151.74923706 87.56878662 C151.74305157 94.23016236 151.72668099 100.89147149 151.70653808 107.55281806 C151.68408714 115.14423632 151.67316266 122.73565797 151.66314721 130.32710123 C151.64231171 145.92644583 151.60567272 161.5256988 151.5625 177.125 C136.0525 177.125 120.5425 177.125 104.5625 177.125 C104.48902344 165.89082031 104.48902344 165.89082031 104.4140625 154.4296875 C104.3786444 149.66274755 104.34266622 144.89582481 104.3046875 140.12890625 C104.24456292 132.57570971 104.18642415 125.02253704 104.140625 117.46923828 C104.10353797 111.37426711 104.05711672 105.27942975 104.00443649 99.18457413 C103.98601623 96.86840303 103.97086354 94.55220338 103.95915604 92.23598862 C104.26195253 62.42870304 104.26195253 62.42870304 89.8984375 37.25390625 C82.24206651 30.27610995 73.89201892 27.29358265 63.5625 27.125 C52.91117008 27.89067068 42.52173755 32.93790367 35.3125 40.79296875 C27.29195225 51.48106475 25.27111437 62.49835954 25.24365234 75.51977539 C25.23360672 76.6232431 25.2235611 77.72671082 25.21321106 78.86361694 C25.18250824 82.48329178 25.16537974 86.10289309 25.1484375 89.72265625 C25.12971549 92.24328742 25.11014131 94.7639124 25.0897522 97.28453064 C25.04375928 103.22345671 25.00631213 109.16239705 24.97307932 115.10140461 C24.93473222 121.86816891 24.88535547 128.63483904 24.83509517 135.40152371 C24.73203859 149.30928612 24.64414915 163.21709628 24.5625 177.125 C9.0525 177.125 -6.4575 177.125 -22.4375 177.125 C-22.48648438 169.71933594 -22.53546875 162.31367188 -22.5859375 154.68359375 C-22.62136033 149.96678395 -22.6573412 145.24999142 -22.6953125 140.53320312 C-22.75541057 133.06130563 -22.8135428 125.58943204 -22.859375 118.11743164 C-22.89649304 112.08729398 -22.94292182 106.05729077 -22.99556351 100.02726936 C-23.01396756 97.7370447 -23.02912596 95.44679138 -23.04084396 93.15652275 C-22.65252647 62.87082224 -22.65252647 62.87082224 -37.1015625 37.25390625 C-44.75793349 30.27610995 -53.10798108 27.29358265 -63.4375 27.125 C-74.08882992 27.89067068 -84.47826245 32.93790367 -91.6875 40.79296875 C-99.70804775 51.48106475 -101.72888563 62.49835954 -101.75634766 75.51977539 C-101.77141609 77.17497696 -101.77141609 77.17497696 -101.78678894 78.86361694 C-101.81749176 82.48329178 -101.83462026 86.10289309 -101.8515625 89.72265625 C-101.87028451 92.24328742 -101.88985869 94.7639124 -101.9102478 97.28453064 C-101.95624072 103.22345671 -101.99368787 109.16239705 -102.02692068 115.10140461 C-102.06526778 121.86816891 -102.11464453 128.63483904 -102.16490483 135.40152371 C-102.26796141 149.30928612 -102.35585085 163.21709628 -102.4375 177.125 C-117.9475 177.125 -133.4575 177.125 -149.4375 177.125 C-149.4375 114.755 -149.4375 52.385 -149.4375 -11.875 C-133.9275 -11.875 -118.4175 -11.875 -102.4375 -11.875 C-101.9425 -3.46 -101.9425 -3.46 -101.4375 5.125 C-100.07625 3.784375 -98.715 2.44375 -97.3125 1.0625 C-70.83795183 -22.71591314 -27.84525747 -19.33240755 0 0 Z " fill="#000000" transform="translate(1007.4375,187.875)"/>
<path d="M0 0 C17.65114779 16.36641235 29.64054816 39.43649447 30.875 63.6875 C31.0760687 70.75987309 31.08378294 77.70342079 29.875 84.6875 C28.11292594 86.44957406 25.60289952 85.83137721 23.21202087 85.84571838 C21.98217972 85.8555072 20.75233856 85.86529602 19.48522949 85.87538147 C18.10986367 85.88128642 16.73449744 85.88709682 15.35913086 85.89282227 C13.9205751 85.90239545 12.48202219 85.91240519 11.04347229 85.92282104 C7.12631921 85.94993688 3.209154 85.97091015 -0.70804143 85.99082303 C-4.79736259 86.01264154 -8.88664608 86.04005039 -12.97593689 86.06687927 C-20.72489665 86.11686226 -28.47387727 86.16178021 -36.22287792 86.20490164 C-45.04258884 86.25422621 -53.86226198 86.30916201 -62.68193638 86.36458123 C-80.8295892 86.47848729 -98.97727764 86.58530746 -117.125 86.6875 C-116.53630828 88.42363847 -115.93642602 90.15598432 -115.33203125 91.88671875 C-114.99921143 92.85182373 -114.6663916 93.81692871 -114.32348633 94.8112793 C-109.32686506 106.80255963 -98.6450977 113.80909128 -87.125 118.6875 C-76.06257364 122.57322682 -61.61293652 122.37475172 -50.73046875 118.015625 C-40.35220893 112.72535763 -32.58084677 105.27345429 -26.125 95.6875 C-21.83244394 97.18788875 -18.2823462 99.44153551 -14.5625 102 C-9.9845007 105.10887877 -5.38703909 108.17757877 -0.73046875 111.16796875 C0.17823975 111.75215576 1.08694824 112.33634277 2.02319336 112.93823242 C3.82516842 114.09421338 5.62933493 115.24678611 7.43579102 116.39575195 C8.25877686 116.92515381 9.0817627 117.45455566 9.9296875 118 C10.66687012 118.47050781 11.40405273 118.94101562 12.16357422 119.42578125 C13.875 120.6875 13.875 120.6875 14.875 122.6875 C6.11743729 134.89874941 -4.26712617 144.88926042 -17.125 152.6875 C-17.76034668 153.07566895 -18.39569336 153.46383789 -19.05029297 153.86376953 C-41.33975081 167.21143174 -67.67545734 171.25937354 -93.04638672 165.23095703 C-118.55091385 158.68666008 -141.00428668 141.98262874 -154.87109375 119.6015625 C-168.01315872 97.32857575 -171.88500891 71.81733153 -166.21875 46.4765625 C-158.26165754 18.91092076 -140.33827226 -2.534312 -115.5078125 -16.61279297 C-77.27988333 -37.13593565 -31.69898924 -27.32336189 0 0 Z M-111.125 37.6875 C-113.51244824 40.92187206 -113.51244824 40.92187206 -114.125 44.6875 C-85.085 44.6875 -56.045 44.6875 -26.125 44.6875 C-29.95656775 35.10858061 -38.33387106 26.88272103 -47.70703125 22.47265625 C-70.78657388 12.97726609 -94.79199751 19.04359309 -111.125 37.6875 Z " fill="#000000" transform="translate(810.125,202.3125)"/>
<path d="M0 0 C0.6379248 0.20898926 1.27584961 0.41797852 1.93310547 0.63330078 C16.30879434 5.46866098 28.15533346 13.43922525 39 24 C40.06154297 24.98613281 40.06154297 24.98613281 41.14453125 25.9921875 C56.97016999 41.06134255 67.49379006 63.55581977 68.23828125 85.45703125 C68.74720685 114.39732517 61.08269242 138.04780572 40.71484375 159.25 C26.92813487 173.2152418 10.90455085 181.91662015 -8 187 C-8.82371094 187.22816406 -9.64742187 187.45632813 -10.49609375 187.69140625 C-34.77105892 193.24551828 -61.50798502 187.60863242 -82.48535156 174.7331543 C-105.43873169 159.93969473 -121.39186325 137.96096759 -127.40625 111.2421875 C-132.45937522 86.46243883 -127.21520733 62.45225889 -114 41 C-98.57555567 18.26093848 -76.81184952 3.07643709 -50 -3 C-33.67861115 -6.05531881 -15.76062314 -5.23180975 0 0 Z M-69.1484375 58.34765625 C-78.37338032 71.56228954 -81.45588733 85.02891601 -80 101 C-77.36492669 115.79234335 -70.30644643 127.40065662 -58.0859375 136.06640625 C-45.41682202 144.00464949 -31.39862376 146.0740939 -16.8125 142.9375 C-4.80135587 139.46653765 5.98637166 132.14460162 12.26171875 121.21875 C16.07354234 114.15106384 19.42556564 107.10451951 20 99 C20.07992188 97.94683594 20.15984375 96.89367187 20.2421875 95.80859375 C20.76778371 81.97304635 17.32565058 70.06435143 9 59 C8.39027344 58.16855469 7.78054688 57.33710938 7.15234375 56.48046875 C-0.45419043 47.71431774 -11.73196455 41.89088407 -23.22998047 40.78564453 C-41.13308821 39.61208979 -57.26396435 44.0422719 -69.1484375 58.34765625 Z " fill="#000000" transform="translate(1371,179)"/>
<path d="M0 0 C3.57392934 2.74313336 6.84165149 5.78963163 10 9 C9.38543558 12.25456276 8.27261347 14.30649294 6.296875 16.94921875 C5.73436035 17.7074292 5.1718457 18.46563965 4.59228516 19.24682617 C3.98433105 20.05224854 3.37637695 20.8576709 2.75 21.6875 C2.13044434 22.51805908 1.51088867 23.34861816 0.87255859 24.2043457 C-5.34846293 32.52242047 -11.65881192 40.77330916 -18 49 C-20.958327 46.24525679 -22.97629704 43.58831918 -24.9375 40.0625 C-28.01548191 34.83762571 -30.6108194 31.10269874 -36.25 28.5 C-41.14301157 27.84759846 -44.68667702 28.59722047 -49 31 C-53.10569822 35.92683786 -54.11000376 39.91868569 -54.31640625 46.19921875 C-54.35451416 47.28807373 -54.39262207 48.37692871 -54.43188477 49.4987793 C-54.47498779 50.88105713 -54.51809082 52.26333496 -54.5625 53.6875 C-54.706875 58.080625 -54.85125 62.47375 -55 67 C-38.17 67 -21.34 67 -4 67 C-4 80.86 -4 94.72 -4 109 C-20.83 109 -37.66 109 -55 109 C-55 157.51 -55 206.02 -55 256 C-71.17 256 -87.34 256 -104 256 C-104 207.49 -104 158.98 -104 109 C-113.24 109 -122.48 109 -132 109 C-132 95.14 -132 81.28 -132 67 C-122.76 67 -113.52 67 -104 67 C-104.061875 62.83375 -104.12375 58.6675 -104.1875 54.375 C-104.26109963 36.47855582 -102.13498027 21.74361496 -89.3828125 8.19140625 C-64.34005223 -14.83972246 -28.39950303 -19.29720353 0 0 Z " fill="#000000" transform="translate(499,109)"/>
<path d="M0 0 C16.17 0 32.34 0 49 0 C49.33 7.26 49.66 14.52 50 22 C52.31 19.36 54.62 16.72 57 14 C69.41433889 3.92486146 84.649365 -0.08247762 100.3125 -0.3125 C101.44969482 -0.33920776 101.44969482 -0.33920776 102.60986328 -0.36645508 C110.02513622 -0.35629289 115.31985263 1.2276583 123 3 C123 14.88 123 26.76 123 39 C117.555 38.505 117.555 38.505 112 38 C96.87610589 36.92600985 81.81458578 40.15745014 70 49.9375 C53.35387957 65.5848532 50.59626272 88.0070137 49.80288696 109.72183228 C49.44763674 121.6729855 49.39664494 133.63163308 49.33044434 145.5871582 C49.29485207 151.36472714 49.23808919 157.1421256 49.18505096 162.91955566 C49.10752507 171.61301237 49.05617612 180.30626159 49 189 C32.83 189 16.66 189 0 189 C0 126.63 0 64.26 0 0 Z " fill="#000000" transform="translate(520,175)"/>
<path d="M0 0 C16.17 0 32.34 0 49 0 C49 62.04 49 124.08 49 188 C32.83 188 16.66 188 0 188 C0 125.96 0 63.92 0 0 Z " fill="#000000" transform="translate(1176,176)"/>
<path d="M0 0 C6.77820492 5.45795216 12.1068821 11.93727357 13.9453125 20.56640625 C15.09183262 32.30629451 13.69723845 41.51312884 6.8203125 51.31640625 C1.5403281 57.71810408 -5.8526286 62.17622678 -14.0546875 63.56640625 C-25.35763603 64.52964021 -35.24192994 62.6671809 -44.203125 55.40234375 C-51.03498164 48.62813991 -55.23122325 41.23109958 -55.43481445 31.50146484 C-55.41663653 23.75420922 -55.00013842 17.45466875 -51.0546875 10.56640625 C-50.71566406 9.93605469 -50.37664062 9.30570313 -50.02734375 8.65625 C-45.65385701 1.57462556 -38.34836898 -3.02415595 -30.4921875 -5.37109375 C-19.59222193 -7.83583316 -9.37411504 -6.35694036 0 0 Z " fill="#171516" transform="translate(156.0546875,6.43359375)"/>
<path d="M0 0 C1.36125 0.8971875 1.36125 0.8971875 2.75 1.8125 C8.36027315 7.26693223 11.13343539 13.26739575 11.375 21.0625 C11.28902918 28.79127691 9.33268199 34.23262035 4.203125 40.03125 C-2.20217596 46.07785411 -8.59933513 49.17842358 -17.4375 49.5 C-26.29419186 49.19994852 -33.79635215 46.48563185 -40 40 C-45.21464312 32.45410466 -48.04098438 26.24988977 -47 17 C-44.85415882 9.37321509 -40.22886682 2.66286458 -33.5 -1.57421875 C-22.0224 -7.53505565 -10.78984731 -7.47502824 0 0 Z " fill="#000000" transform="translate(1218,104)"/>
</svg>
